<svg width="16" height="17" viewBox="0 0 16 17" fill="none" xmlns="http://www.w3.org/2000/svg">
<path d="M7.99967 1.71094C8.36787 1.71094 8.66633 2.00942 8.66633 2.3776V4.3776C8.66633 4.74579 8.36787 5.04427 7.99967 5.04427C7.63147 5.04427 7.333 4.74579 7.333 4.3776V2.3776C7.333 2.00942 7.63147 1.71094 7.99967 1.71094ZM7.99967 11.7109C8.36787 11.7109 8.66633 12.0094 8.66633 12.3776V14.3776C8.66633 14.7458 8.36787 15.0443 7.99967 15.0443C7.63147 15.0443 7.333 14.7458 7.333 14.3776V12.3776C7.333 12.0094 7.63147 11.7109 7.99967 11.7109ZM13.7731 5.04427C13.9573 5.36313 13.848 5.77086 13.5291 5.95495L11.7971 6.95495C11.4782 7.13907 11.0705 7.0298 10.8864 6.71094C10.7023 6.39208 10.8115 5.98435 11.1304 5.80026L12.8625 4.80025C13.1813 4.61616 13.5891 4.72541 13.7731 5.04427ZM5.1129 10.0443C5.29699 10.3631 5.18774 10.7709 4.86888 10.9549L3.13683 11.9549C2.81797 12.1391 2.41024 12.0298 2.22615 11.7109C2.04205 11.3921 2.1513 10.9843 2.47017 10.8003L4.20221 9.80027C4.52107 9.61614 4.9288 9.7254 5.1129 10.0443ZM13.7731 11.7109C13.5891 12.0298 13.1813 12.1391 12.8625 11.9549L11.1304 10.9549C10.8115 10.7709 10.7023 10.3631 10.8864 10.0443C11.0705 9.7254 11.4782 9.61614 11.7971 9.80027L13.5291 10.8003C13.848 10.9843 13.9573 11.3921 13.7731 11.7109ZM5.1129 6.71094C4.9288 7.0298 4.52107 7.13907 4.20221 6.95495L2.47017 5.95495C2.1513 5.77086 2.04205 5.36313 2.22615 5.04427C2.41024 4.72541 2.81797 4.61616 3.13683 4.80025L4.86888 5.80026C5.18774 5.98435 5.29699 6.39208 5.1129 6.71094Z" fill="#FFA800"/>
</svg>
